<svg xmlns="http://www.w3.org/2000/svg" style="display:none">

    <symbol id="inbox" viewBox="0 0 24 24" fill="none" stroke="currentColor"  stroke-linecap="round" stroke-linejoin="round">
        <path d="M3 19V6a1 1 0 0 1 1-1h4.032a1 1 0 0 1 .768.36l1.9 2.28a1 1 0 0 0 .768.36H16a1 1 0 0 1 1 1v1M3 19l3-8h15l-3 8H3Z"/>
    </symbol>

    <symbol id="upvote" viewBox="0 0 24 24" fill="none" stroke="currentColor"  stroke-linecap="round" stroke-linejoin="round">
        <path d="M 16.881 16 H 7.119 a 1 1 0 0 1 -0.772 -1.636 l 4.881 -5.927 a 1 1 0 0 1 1.544 0 l 4.88 5.927 a 1 1 0 0 1 -0.77 1.636 Z"/>
    </symbol>

    <symbol id="comment" viewBox="0 0 24 24" fill="none" stroke="currentColor"  stroke-linecap="round" stroke-linejoin="round">
        <path d="M7.556 8.5h8m-8 3.5H12m7.111-7H4.89a.896.896 0 0 0-.629.256.868.868 0 0 0-.26.619v9.25c0 .232.094.455.26.619A.896.896 0 0 0 4.89 16H9l3 4 3-4h4.111a.896.896 0 0 0 .629-.256.868.868 0 0 0 .26-.619v-9.25a.868.868 0 0 0-.26-.619.896.896 0 0 0-.63-.256Z"/>
    </symbol>

    <symbol id="plus" viewBox="0 0 24 24" fill="none" stroke="currentColor"  stroke-linecap="round" stroke-linejoin="round">
        <path d="M12 7.757v8.486M7.757 12h8.486M21 12a9 9 0 1 1-18 0 9 9 0 0 1 18 0Z"/>
    </symbol>

    <symbol id="roadmap" viewBox="0 0 24 24" fill="none" stroke="currentColor"  stroke-linecap="round" stroke-linejoin="round">
        <path d="M4 5a1 1 0 0 1 1-1h4a1 1 0 0 1 1 1v2a1 1 0 0 1-1 1H5a1 1 0 0 1-1-1V5Zm16 14a1 1 0 0 1-1 1h-4a1 1 0 0 1-1-1v-2a1 1 0 0 1 1-1h4a1 1 0 0 1 1 1v2ZM4 13a1 1 0 0 1 1-1h4a1 1 0 0 1 1 1v6a1 1 0 0 1-1 1H5a1 1 0 0 1-1-1v-6Zm16-2a1 1 0 0 1-1 1h-4a1 1 0 0 1-1-1V5a1 1 0 0 1 1-1h4a1 1 0 0 1 1 1v6Z"/>
    </symbol>

    <symbol id="changelog" viewBox="0 0 24 24" fill="none" stroke="currentColor"  stroke-linecap="round" stroke-linejoin="round">
        <path d="M13.5 8H4m4 6h8m0 0-2-2m2 2-2 2M4 6v13a1 1 0 0 0 1 1h14a1 1 0 0 0 1-1V9a1 1 0 0 0-1-1h-5.032a1 1 0 0 1-.768-.36l-1.9-2.28a1 1 0 0 0-.768-.36H5a1 1 0 0 0-1 1Z"/>
    </symbol>

    <symbol id="bold" viewBox="0 0 24 24" fill="none" stroke="currentColor"  stroke-linecap="round" stroke-linejoin="round">
        <path d="M8 5h4.5a3.5 3.5 0 1 1 0 7H8m0-7v7m0-7H6m2 7h6.5a3.5 3.5 0 1 1 0 7H8m0-7v7m0 0H6"/>
    </symbol>

    <symbol id="italic" viewBox="0 0 24 24" fill="none" stroke="currentColor"  stroke-linecap="round" stroke-linejoin="round">
        <path d="m8.874 19 6.143-14M6 19h6.33m-.66-14H18"/>
    </symbol>

    <symbol id="quote" viewBox="0 0 24 24" fill="none" stroke="currentColor"  stroke-linecap="round" stroke-linejoin="round">
        <path d="M10 11V8a1 1 0 0 0-1-1H6a1 1 0 0 0-1 1v3a1 1 0 0 0 1 1h3a1 1 0 0 0 1-1Zm0 0v2a4 4 0 0 1-4 4H5m14-6V8a1 1 0 0 0-1-1h-3a1 1 0 0 0-1 1v3a1 1 0 0 0 1 1h3a1 1 0 0 0 1-1Zm0 0v2a4 4 0 0 1-4 4h-1"/>
    </symbol>

    <symbol id="code" viewBox="0 0 24 24" fill="none" stroke="currentColor"  stroke-linecap="round" stroke-linejoin="round">
        <path d="m8 8-4 4 4 4m8 0 4-4-4-4m-2-3-4 14"/>
    </symbol>

    <symbol id="pin" viewBox="0 0 24 24" fill="none" stroke="currentColor" stroke-linecap="round" stroke-linejoin="round">
        <path d="M12 15a6 6 0 1 0 0-12 6 6 0 0 0 0 12Zm0 0v6M9.5 9A2.5 2.5 0 0 1 12 6.5"/>
    </symbol>

    <symbol id="admin-view" viewBox="0 0 24 24" fill="none" stroke="currentColor" stroke-linecap="round" stroke-linejoin="round">
        <path d="M14.7141 15h4.268c.4043 0 .732-.3838.732-.8571V3.85714c0-.47338-.3277-.85714-.732-.85714H6.71411c-.55228 0-1 .44772-1 1v4m10.99999 7v-3h3v3h-3Zm-3 6H6.71411c-.55228 0-1-.4477-1-1 0-1.6569 1.34315-3 3-3h2.99999c1.6569 0 3 1.3431 3 3 0 .5523-.4477 1-1 1Zm-1-9.5c0 1.3807-1.1193 2.5-2.5 2.5s-2.49999-1.1193-2.49999-2.5S8.8334 9 10.2141 9s2.5 1.1193 2.5 2.5Z"/>
    </symbol>

    <symbol id="dashboard" viewBox="0 0 24 24" fill="none" stroke="currentColor" stroke-linecap="round" stroke-linejoin="round">
        <path d="M6 8h.01M9 8h.01M12 8h.01M4 11h16M4 19h16a1 1 0 0 0 1-1V6a1 1 0 0 0-1-1H4a1 1 0 0 0-1 1v12a1 1 0 0 0 1 1Z"/>
    </symbol>

    <symbol id="bars" viewBox="0 0 24 24" fill="none" stroke="currentColor" stroke-linecap="round" stroke-linejoin="round">
        <path d="M5 7h14M5 12h14M5 17h14"/>
    </symbol>

    <symbol id="info" viewBox="0 0 24 24" fill="none" stroke="currentColor" stroke-linecap="round" stroke-linejoin="round">
        <path d="M13 16h-1v-4h-1m1-4h.01M21 12a9 9 0 1 1-18 0 9 9 0 0 1 18 0Z"/>
    </symbol>

    <symbol id="search" viewBox="0 0 24 24" fill="none" stroke="currentColor" stroke-linecap="round" stroke-linejoin="round">
        <path d="M21 21l-6-6m2-5a7 7 0 11-14 0 7 7 0 0114 0z"/>
    </symbol>

</svg>
